HIERARCHY
ROOT Hips
{
	OFFSET 0.000000 0.000000 0.000000 
	CHANNELS 6 Xposition Yposition Zposition Yrotation Zrotation Xrotation 
	JOINT Lumbar
	{
		OFFSET 0.000000 0.000000 0.000000 
		CHANNELS 3 Zrotation Xrotation Yrotation
		JOINT Neck
		{
			OFFSET 0.000000 0.445665 0.000000 
			CHANNELS 3 Zrotation Xrotation Yrotation
			End Site
			{
				OFFSET 0.000000 0.227535 0.000000 
			}
		}
		JOINT RightShoulder
		{
			OFFSET 0.019635 0.377685 0.194865 
			CHANNELS 3 Zrotation Xrotation Yrotation
			JOINT RightElbow
			{
				OFFSET 0.000000 -0.243375 0.000000 
				CHANNELS 2 Zrotation Yrotation
				JOINT RightWrist
				{
					OFFSET 0.000000 -0.264825 0.000000 
					CHANNELS 2 Zrotation Xrotation
					End Site
					{
						OFFSET 0.006600 -0.176220 0.000990 
					}
				}
			}
		}
		JOINT LeftShoulder
		{
			OFFSET 0.019635 0.377685 -0.194865 
			CHANNELS 3 Zrotation Xrotation Yrotation
			JOINT LeftElbow
			{
				OFFSET 0.000000 -0.243375 0.000000 
				CHANNELS 2 Zrotation Yrotation
				JOINT LeftWrist
				{
					OFFSET 0.000000 -0.264825 0.000000 
					CHANNELS 2 Zrotation Xrotation
					End Site
					{
						OFFSET 0.006600 -0.176220 -0.000990 
					}
				}
			}
		}
	}
	JOINT RightHip
	{
		OFFSET 0.052140 -0.069960 0.075570 
		CHANNELS 3 Zrotation Xrotation Yrotation
		JOINT RightKnee
		{
			OFFSET 0.000000 -0.402270 0.000000 
			CHANNELS 1 Zrotation
			JOINT RightAnkle
			{
				OFFSET 0.000000 -0.404085 0.000000 
				CHANNELS 3 Zrotation Xrotation Yrotation
				End Site
				{
					OFFSET 0.204105 -0.089430 0.008415 
				}
			}
		}
	}
	JOINT LeftHip
	{
		OFFSET 0.052140 -0.069960 -0.075570 
		CHANNELS 3 Zrotation Xrotation Yrotation
		JOINT LeftKnee
		{
			OFFSET 0.000000 -0.402270 0.000000 
			CHANNELS 1 Zrotation
			JOINT LeftAnkle
			{
				OFFSET 0.000000 -0.404085 0.000000 
				CHANNELS 3 Zrotation Xrotation Yrotation
				End Site
				{
					OFFSET 0.204105 -0.089430 -0.008415 
				}
			}
		}
	}
}
MOTION
Frames: 20
Frame Time: 0.02
-0 0.95578 -0 175.75805 0 2.42352 9.77619 -1.2125 -3.73721 -45.2822 6.38827 7.57193 35.28092 -20.20099 7.03817 14.02371 83.59683 0.27996 1.63544 36.95966 -2.10552 0.87161 7.26462 -73.83107 -4.88545 -0.60997 -2.02785 3.75699 21.93719 -20.78431 12.463 -11.28567 -14.24783 -4.48607 -3.44862 -9.26694 -14.7848 10.71709 9.71815 13.08979
-0.00014 0.95581 0.00032 175.82951 0 2.4265 9.70961 -1.20119 -3.79352 -45.05542 6.43795 7.55951 35.06245 -20.25668 7.10694 14.04489 83.55149 0.27888 1.61054 36.84355 -2.08178 0.36056 7.29694 -73.87176 -4.90116 -0.49505 -2.0779 3.72494 21.86949 -20.70093 12.45435 -11.2728 -14.25313 -4.49505 -3.46094 -9.33331 -14.75957 10.7014 9.70986 13.08771
-0.00027 0.95584 0.00063 175.90049 0 2.42944 9.64272 -1.18974 -3.8495 -44.82808 6.48692 7.54677 34.84362 -20.31139 7.17537 14.06575 83.50624 0.27775 1.58584 36.72651 -2.05756 -0.14885 7.32916 -73.91278 -4.91675 -0.38097 -2.12741 3.69305 21.80209 -20.61825 12.44572 -11.26001 -14.25833 -4.50384 -3.47323 -9.3993 -14.73453 10.68577 9.70156 13.08562
-0.00039 0.95587 0.00095 175.97017 0 2.43196 9.57457 -1.1776 -3.90465 -44.60005 6.53448 7.53355 34.62491 -20.36429 7.24341 14.08561 83.46074 0.27635 1.56243 36.6084 -2.03265 -0.6568 7.36099 -73.95505 -4.93182 -0.2691 -2.17516 3.66179 21.73516 -20.53776 12.43707 -11.2475 -14.26314 -4.51179 -3.48534 -9.46395 -14.71051 10.67053 9.69339 13.08334
-0.00056 0.9559 0.00126 176.04661 0 2.43637 9.51383 -1.16908 -3.9641 -44.38024 6.59066 7.524 34.41006 -20.42867 7.3139 14.1109 83.41633 0.27632 1.53306 36.50053 -2.01318 -1.17263 7.39454 -73.99012 -4.94941 -0.14551 -2.23211 3.62758 21.66566 -20.4459 12.42854 -11.23361 -14.26995 -4.52402 -3.49814 -9.53514 -14.6817 10.65362 9.68484 13.08193
-0.00063 0.95593 0.00159 176.10878 0 2.43699 9.43698 -1.15293 -4.01446 -44.14014 6.62776 7.50593 34.18421 -20.46745 7.37886 14.12456 83.36984 0.27343 1.51575 36.368 -1.98102 -1.67118 7.42463 -74.04075 -4.96181 -0.04683 -2.26961 3.59939 21.6017 -20.37804 12.41977 -11.2226 -14.27254 -4.52732 -3.50965 -9.59277 -14.66263 10.63999 9.67688 13.07874
-0.00041 0.95597 0.00195 176.13108 0 2.42502 9.31596 -1.11429 -4.03963 -43.86073 6.61807 7.46917 33.94525 -20.44435 7.43181 14.10629 83.31466 0.2619 1.53747 36.18655 -1.92146 -2.13521 7.44398 -74.13474 -4.9582 -0.01681 -2.25205 3.58974 21.55158 -20.37844 12.40991 -11.21997 -14.26295 -4.50408 -3.51619 -9.61018 -14.67438 10.63772 9.67225 13.06969
-8e-05 0.95601 0.00232 176.13919 0 2.40962 9.17847 -1.06813 -4.05554 -43.55695 6.58805 7.42279 33.69121 -20.39367 7.47846 14.07621 83.25799 0.2476 1.57042 35.97603 -1.84753 -2.58 7.46009 -74.24467 -4.94964 -0.01195 -2.21506 3.58583 21.50719 -20.4028 12.39987 -11.22019 -14.24921 -4.47214 -3.52166 -9.61441 -14.69524 10.63834 9.6679 13.0589
0.0002 0.95606 0.00269 176.15395 0 2.39716 9.04815 -1.02631 -4.07596 -43.2537 6.56347 7.37772 33.43319 -20.34992 7.52615 14.05144 83.20365 0.23503 1.59442 35.76663 -1.77522 -3.02543 7.47848 -74.34699 -4.9444 0.00437 -2.1879 3.57802 21.46119 -20.41483 12.39017 -11.21882 -14.23765 -4.4454 -3.52854 -9.62648 -14.70942 10.63618 9.66233 13.04963
0.00048 0.9561 0.00307 176.16741 0 2.37884 8.91922 -0.98069 -4.09566 -42.99705 6.55488 7.34596 33.22312 -20.33013 7.58223 14.02702 83.14174 0.2205 1.63428 35.61011 -1.72398 -3.5045 7.49345 -74.45014 -4.93464 0.02064 -2.15668 3.5756 21.41134 -20.43264 12.37939 -11.21861 -14.2247 -4.41348 -3.53158 -9.63077 -14.73441 10.64026 9.66139 13.03767
0.00078 0.95615 0.00342 176.18078 0 2.37197 8.78343 -0.94108 -4.11394 -42.63499 6.50822 7.28371 32.90687 -20.25351 7.61845 13.99892 83.096 0.20938 1.6442 35.33428 -1.62501 -3.90957 7.51479 -74.5562 -4.93315 0.03094 -2.1291 3.56339 21.37045 -20.44448 12.37081 -11.21674 -14.21385 -4.3902 -3.5423 -9.64809 -14.73895 10.63195 9.65084 13.03039
0.0011 0.95622 0.00369 176.19265 0 2.39709 8.63354 -0.92096 -4.13666 -42.01077 6.36098 7.14411 32.32544 -20.03039 7.60942 13.96476 83.08872 0.20857 1.56527 34.75652 -1.40146 -4.11105 7.55499 -74.65917 -4.95559 0.0324 -2.11814 3.52208 21.35626 -20.43054 12.36832 -11.20905 -14.20818 -4.39376 -3.57515 -9.70521 -14.68563 10.58937 9.61376 13.04086
0.00144 0.9563 0.00393 176.20599 0 2.43395 8.47738 -0.90697 -4.15705 -41.27799 6.17634 6.97348 31.6341 -19.75069 7.57937 13.92709 83.09881 0.21144 1.45661 34.05674 -1.12964 -4.24031 7.60199 -74.76593 -4.9866 0.02882 -2.11125 3.47083 21.35007 -20.41033 12.36806 -11.19971 -14.20505 -4.40616 -3.61564 -9.77597 -14.6113 10.53412 9.56696 13.0553
0.00177 0.95638 0.00418 176.22155 0 2.46574 8.32325 -0.88947 -4.17459 -40.57864 6.00897 6.81395 30.97589 -19.49403 7.55338 13.89018 83.1055 0.21228 1.3636 33.39835 -0.87754 -4.40416 7.64511 -74.87561 -5.01373 0.0261 -2.1012 3.42455 21.33827 -20.39536 12.36676 -11.19146 -14.20182 -4.41398 -3.65222 -9.83986 -14.54601 10.48423 9.52455 13.06501
0.00209 0.95645 0.00444 176.22371 0 2.49624 8.17105 -0.87469 -4.20863 -39.94166 5.83922 6.66617 30.38417 -19.24626 7.54939 13.85629 83.09395 0.2138 1.26131 32.79482 -0.63444 -4.55641 7.68997 -74.96597 -5.04045 0.02702 -2.09572 3.37653 21.33582 -20.3715 12.36551 -11.18181 -14.19403 -4.42394 -3.69067 -9.90538 -14.48305 10.43606 9.48228 13.08693
0.00244 0.95654 0.00468 176.25522 0 2.53231 8.01474 -0.85587 -4.20745 -39.15426 5.66645 6.48743 29.63308 -18.96871 7.49587 13.81557 83.12354 0.21574 1.17193 32.05283 -0.36112 -4.72027 7.73472 -75.0976 -5.07033 0.02137 -2.08232 3.32971 21.31472 -20.36389 12.36476 -11.17472 -14.19634 -4.43156 -3.72698 -9.97184 -14.41031 10.38136 9.4374 13.0845
0.00291 0.95666 0.00484 176.35944 0 2.58062 7.8387 -0.82386 -4.11284 -37.9361 5.48923 6.22481 28.42638 -18.60765 7.29892 13.75668 83.27084 0.2095 1.11811 30.92032 -0.01698 -4.89817 7.76425 -75.3432 -5.10738 -0.01631 -2.04285 3.28869 21.24908 -20.40667 12.36411 -11.17459 -14.22644 -4.43165 -3.7561 -10.02945 -14.31391 10.31091 9.38775 13.0128
0.00342 0.95678 0.00498 176.49448 0 2.63418 7.66077 -0.78774 -3.982 -36.57864 5.31137 5.93363 27.0716 -18.22184 7.0541 13.69176 83.45728 0.20489 1.07919 29.65973 0.35668 -5.09801 7.79786 -75.63256 -5.14882 -0.05687 -1.99595 3.24923 21.16296 -20.46522 12.364 -11.17717 -14.2665 -4.42897 -3.78267 -10.08896 -14.20868 10.23449 9.33582 12.91671
0.0039 0.9569 0.00512 176.62106 0 2.68554 7.49012 -0.75385 -3.86604 -35.3121 5.13734 5.65906 25.81191 -17.85709 6.84022 13.62897 83.62044 0.20538 1.03875 28.48313 0.71645 -5.31002 7.83584 -75.89794 -5.18585 -0.08684 -1.95469 3.20888 21.08007 -20.5137 12.36414 -11.17885 -14.30173 -4.42684 -3.81011 -10.15315 -14.10856 10.16129 9.28482 12.83239
0.00442 0.95703 0.00529 176.72526 0 2.7366 7.29168 -0.71853 -3.75792 -33.9236 4.94696 5.36666 24.42897 -17.44777 6.59086 13.56603 83.80778 0.18233 0.97683 27.19421 1.07713 -5.4219 7.83982 -76.17014 -5.22677 -0.15865 -1.90408 3.16866 21.02217 -20.57391 12.36232 -11.17913 -14.33848 -4.42783 -3.83922 -10.19501 -14.00298 10.08539 9.23378 12.74508
